<svg width="182" height="33" viewBox="0 0 182 33" fill="none" xmlns="http://www.w3.org/2000/svg">
<path d="M152.642 9L150.256 0.272727H151.33L153.153 7.38068H153.239L155.097 0.272727H156.29L158.148 7.38068H158.233L160.057 0.272727H161.131L158.744 9H157.653L155.727 2.04545H155.659L153.733 9H152.642Z" fill="white"/>
<path d="M164.361 9.13636C163.77 9.13636 163.251 8.99574 162.805 8.71449C162.362 8.43324 162.016 8.03977 161.766 7.53409C161.518 7.02841 161.395 6.4375 161.395 5.76136C161.395 5.07955 161.518 4.48437 161.766 3.97585C162.016 3.46733 162.362 3.07244 162.805 2.79119C163.251 2.50994 163.77 2.36932 164.361 2.36932C164.952 2.36932 165.469 2.50994 165.912 2.79119C166.358 3.07244 166.705 3.46733 166.952 3.97585C167.202 4.48437 167.327 5.07955 167.327 5.76136C167.327 6.4375 167.202 7.02841 166.952 7.53409C166.705 8.03977 166.358 8.43324 165.912 8.71449C165.469 8.99574 164.952 9.13636 164.361 9.13636ZM164.361 8.23295C164.81 8.23295 165.179 8.1179 165.469 7.88778C165.759 7.65767 165.973 7.35511 166.112 6.98011C166.251 6.60511 166.321 6.19886 166.321 5.76136C166.321 5.32386 166.251 4.91619 166.112 4.53835C165.973 4.16051 165.759 3.85511 165.469 3.62216C165.179 3.3892 164.81 3.27273 164.361 3.27273C163.912 3.27273 163.543 3.3892 163.253 3.62216C162.963 3.85511 162.749 4.16051 162.609 4.53835C162.47 4.91619 162.401 5.32386 162.401 5.76136C162.401 6.19886 162.47 6.60511 162.609 6.98011C162.749 7.35511 162.963 7.65767 163.253 7.88778C163.543 8.1179 163.912 8.23295 164.361 8.23295Z" fill="white"/>
<path d="M168.862 9V2.45455H169.833V3.44318H169.902C170.021 3.11932 170.237 2.85653 170.549 2.65483C170.862 2.45312 171.214 2.35227 171.606 2.35227C171.68 2.35227 171.772 2.35369 171.883 2.35653C171.994 2.35937 172.078 2.36364 172.135 2.36932V3.39205C172.1 3.38352 172.022 3.37074 171.9 3.35369C171.781 3.33381 171.654 3.32386 171.521 3.32386C171.203 3.32386 170.919 3.39062 170.669 3.52415C170.422 3.65483 170.225 3.83665 170.081 4.0696C169.939 4.29972 169.868 4.5625 169.868 4.85795V9H168.862Z" fill="white"/>
<path d="M174.332 0.272727V9H173.327V0.272727H174.332Z" fill="white"/>
<path d="M178.646 9.13636C178.1 9.13636 177.619 8.99858 177.201 8.72301C176.784 8.4446 176.457 8.05256 176.221 7.54688C175.985 7.03835 175.868 6.4375 175.868 5.74432C175.868 5.05682 175.985 4.46023 176.221 3.95455C176.457 3.44886 176.785 3.05824 177.206 2.78267C177.626 2.5071 178.112 2.36932 178.663 2.36932C179.089 2.36932 179.426 2.44034 179.673 2.58239C179.923 2.72159 180.113 2.88068 180.244 3.05966C180.377 3.2358 180.481 3.38068 180.555 3.49432H180.64V0.272727H181.646V9H180.674V7.99432H180.555C180.481 8.11364 180.376 8.2642 180.24 8.44602C180.103 8.625 179.909 8.78551 179.656 8.92756C179.403 9.06676 179.066 9.13636 178.646 9.13636ZM178.782 8.23295C179.186 8.23295 179.527 8.12784 179.805 7.91761C180.083 7.70455 180.295 7.41051 180.44 7.03551C180.585 6.65767 180.657 6.22159 180.657 5.72727C180.657 5.23864 180.586 4.81108 180.444 4.4446C180.302 4.07528 180.092 3.78835 179.814 3.58381C179.535 3.37642 179.191 3.27273 178.782 3.27273C178.356 3.27273 178.001 3.3821 177.717 3.60085C177.436 3.81676 177.224 4.1108 177.082 4.48295C176.943 4.85227 176.873 5.26705 176.873 5.72727C176.873 6.19318 176.944 6.61648 177.086 6.99716C177.231 7.375 177.444 7.67614 177.725 7.90057C178.01 8.12216 178.362 8.23295 178.782 8.23295Z" fill="white"/>
<path d="M4.19039 32.6066L6.59219 25.7282H16.8126L19.2017 32.6066H23.3921L13.9765 6.61604H9.41559L0 32.6066H4.19039ZM7.74199 22.4286L11.6002 11.337H11.8046L15.6628 22.4286H7.74199Z" fill="white"/>
<path d="M26.8638 32.6066H30.6837V20.7027C30.6837 18.1519 32.6639 16.3117 35.3723 16.3117C36.1644 16.3117 37.0587 16.4513 37.3653 16.5401V12.9106C36.9821 12.8599 36.2283 12.8218 35.7428 12.8218C33.4432 12.8218 31.4758 14.1162 30.7604 16.2102H30.556V13.1137H26.8638V32.6066Z" fill="white"/>
<path d="M48.2342 33C53.766 33 57.3815 28.977 57.3815 22.9489C57.3815 16.8828 53.766 12.8599 48.2342 12.8599C42.7023 12.8599 39.0868 16.8828 39.0868 22.9489C39.0868 28.977 42.7023 33 48.2342 33ZM48.2469 29.8146C44.6314 29.8146 42.9451 26.68 42.9451 22.9363C42.9451 19.2052 44.6314 16.0325 48.2469 16.0325C51.8369 16.0325 53.5232 19.2052 53.5232 22.9363C53.5232 26.68 51.8369 29.8146 48.2469 29.8146Z" fill="white"/>
<path d="M74.0759 24.5226C74.0887 27.8349 71.6102 29.4085 69.464 29.4085C67.1005 29.4085 65.4652 27.7079 65.4652 25.0556V13.1137H61.6453V25.5125C61.6453 30.3476 64.3154 32.8604 68.0842 32.8604C71.0353 32.8604 73.0411 31.3121 73.9482 29.2308H74.1526V32.6066H77.9086V13.1137H74.0759V24.5226Z" fill="white"/>
<path d="M86.8611 21.0326C86.8611 17.9234 88.7774 16.1467 91.4347 16.1467C94.0282 16.1467 95.5996 17.8346 95.5996 20.6646V32.6066H99.4195V20.2078C99.4195 15.3853 96.7494 12.8599 92.7378 12.8599C89.7867 12.8599 87.8576 14.2178 86.9505 16.2863H86.7078V13.1137H83.0412V32.6066H86.8611V21.0326Z" fill="white"/>
<path d="M111.888 32.9873C115.466 32.9873 116.871 30.8172 117.561 29.5735H117.88V32.6066H121.611V6.61604H117.791V16.2736H117.561C116.871 15.068 115.568 12.8599 111.914 12.8599C107.174 12.8599 103.687 16.5782 103.687 22.8982C103.687 29.2054 107.123 32.9873 111.888 32.9873ZM112.732 29.7511C109.321 29.7511 107.545 26.7688 107.545 22.8601C107.545 18.9895 109.282 16.0833 112.732 16.0833C116.066 16.0833 117.855 18.7864 117.855 22.8601C117.855 26.9592 116.028 29.7511 112.732 29.7511Z" fill="white"/>
<path d="M126.6 1.04906H129.343V8.78191H130.399V1.04906H133.141V0.118408H126.6V1.04906Z" fill="white"/>
<path d="M135.64 4.87318C135.64 3.73948 136.368 3.09649 137.36 3.09649C138.306 3.09649 138.876 3.68872 138.876 4.7209V8.78191H139.881V4.65321C139.881 2.98227 138.987 2.19968 137.65 2.19968C136.619 2.19968 136.032 2.62693 135.725 3.29954H135.64V0.118408H134.635V8.78191H135.64V4.87318Z" fill="white"/>
<path d="M144.463 8.91728C145.791 8.91728 146.762 8.25737 147.069 7.27595L146.098 7.00522C145.842 7.68205 145.25 8.02047 144.463 8.02047C143.283 8.02047 142.47 7.26326 142.423 5.87152H147.171V5.44849C147.171 3.0288 145.723 2.19968 144.36 2.19968C142.589 2.19968 141.413 3.58719 141.413 5.58386C141.413 7.58053 142.572 8.91728 144.463 8.91728ZM142.423 5.00855C142.491 3.99753 143.211 3.09649 144.36 3.09649C145.451 3.09649 146.149 3.90869 146.149 5.00855H142.423Z" fill="white"/>
</svg>
